<svg width="144" height="204" viewBox="0 0 144 204" fill="none" xmlns="http://www.w3.org/2000/svg">
<path fill-rule="evenodd" clip-rule="evenodd" d="M75.8517 1.33269C72.9157 -0.444229 69.2382 -0.444231 66.3022 1.33269L4.45578 38.7633C1.69007 40.4371 0 43.4373 0 46.6731V194.742C0 202.046 8.06258 206.464 14.2066 202.527L68.2782 167.877C70.0222 166.759 71.0769 164.829 71.0769 162.756V153.48C71.0769 153.318 70.9077 153.211 70.7612 153.281C70.6142 153.35 70.4449 153.244 70.4449 153.081V119.505L73.5385 117.602V140.15C73.5385 146.943 80.6111 151.415 86.7366 148.495L138.737 123.713C141.952 122.18 144 118.933 144 115.367V60.028C144 53.6484 137.698 49.1871 131.691 51.3145L79.6911 69.7311C79.6088 69.7602 79.527 69.7905 79.446 69.8218L78.3124 69.1041C77.4997 68.5895 76.9821 67.7215 76.9184 66.7664L76.8719 66.0693L141.374 43.2251C141.841 43.0596 142.154 42.6171 142.154 42.1207C142.154 41.7106 141.94 41.3303 141.589 41.1181L75.8517 1.33269ZM79.446 69.8218C75.8949 71.1934 73.5385 74.6154 73.5385 78.4444V117.602L75.0902 116.647C76.158 116.012 76.4694 112.572 76.2661 111.353V82.734C75.925 80.6879 77.722 78.9209 79.7788 79.2798L84.979 80.1874C88.242 80.7569 89.9252 76.457 87.1317 74.6882L79.446 69.8218ZM76.8719 66.0693L76.5975 66.1665C72.9102 67.4728 70.4449 70.964 70.4449 74.8804V119.505L42.8175 136.5C39.3175 137 39.8989 131.027 40.3175 128.5V78.5C40.4517 77.6899 46.1282 66.522 46.8105 66.0583L67.0595 52.2977C65.1786 50.146 64.0402 47.3369 64.0402 44.2638C64.0402 43.9966 64.0488 43.7314 64.0657 43.4684C61.7386 42.1253 60.1739 39.6226 60.1739 36.757C60.1739 32.4729 63.671 29 67.9848 29H69.485C72.0041 29 74.2447 30.1843 75.673 32.0229C75.9091 32.0095 76.147 32.0027 76.3865 32.0027H78.7576C85.5763 32.0027 91.1039 37.4922 91.1039 44.2638C91.1039 51.0354 85.5763 56.5249 78.7576 56.5249H76.3865C76.336 56.5249 76.2856 56.5246 76.2352 56.524L76.8719 66.0693ZM88.2678 80.5837C90.3706 79.7671 92.7295 79.9159 94.7114 80.9902L94.9866 81.1393C97.6565 82.5865 99.3175 85.3661 99.3175 88.3867V111.851C99.3175 112.528 98.7653 113.076 98.0842 113.076C97.3958 113.076 96.8406 112.516 96.8511 111.833L97.1082 95.0598V87.9235C97.1082 85.7964 95.9691 83.8298 94.1176 82.7603L93.7351 82.5393C92.3779 81.7554 90.733 81.6351 89.2749 82.2131L87.9757 82.7281C86.8199 83.1863 86.0618 84.2975 86.0618 85.5334V87.2426C86.0618 87.9668 85.4706 88.5539 84.7414 88.5539C83.9666 88.5539 83.3584 87.8946 83.426 87.1281L83.6523 84.5653C83.7749 83.1767 84.6795 81.9771 85.9867 81.4695L88.2678 80.5837Z" fill="url(#paint0_linear_2_49)"/>
<defs>
<linearGradient id="paint0_linear_2_49" x1="116" y1="-23.5" x2="87.75" y2="168.731" gradientUnits="userSpaceOnUse">
<stop stop-color="#FD84FF" stop-opacity="0.59"/>
<stop offset="0.607084" stop-color="#707AD5"/>
</linearGradient>
</defs>
</svg>
